{
  "expected_notes": [
    {
      "duration": 0.20175440884275245,
      "note": 60,
      "time": 0.0,
      "velocity": 87
    },
    {
      "duration": 0.16502177616613503,
      "note": 62,
      "time": 0.21929827048125272,
      "velocity": 88
    },
    {
      "duration": 0.18123256086906442,
      "note": 64,
      "time": 0.4821655315928517,
      "velocity": 98
    },
    {
      "duration": 0.20493125900156675,
      "note": 65,
      "time": 0.7124262647450856,
      "velocity": 87
    },
    {
      "duration": 0.18732362589639728,
      "note": 67,
      "time": 0.9508829371648697,
      "velocity": 101
    },
    {
      "duration": 0.2201356822357853,
      "note": 69,
      "time": 1.1745245350679911,
      "velocity": 90
    },
    {
      "duration": 0.18147917467984068,
      "note": 71,
      "time": 1.45042567423119,
      "velocity": 94
    },
    {
      "duration": 0.2002312780730499,
      "note": 72,
      "time": 1.6677678453044789,
      "velocity": 101
    },
    {
      "duration": 0.2191656003401268,
      "note": 64,
      "time": 1.8854105388621418,
      "velocity": 89
    },
    {
      "duration": 0.1855973429203522,
      "note": 67,
      "time": 2.1462581064255133,
      "velocity": 98
    },
    {
      "duration": 0.20120644827646364,
      "note": 69,
      "time": 2.378742174727477,
      "velocity": 93
    },
    {
      "duration": 0.18282353341751703,
      "note": 69,
      "time": 2.6252462761882143,
      "velocity": 87
    },
    {
      "duration": 0.19891307701389627,
      "note": 71,
      "time": 2.908356942560898,
      "velocity": 97
    },
    {
      "duration": 0.20135429511853498,
      "note": 74,
      "time": 3.131639574630568,
      "velocity": 99
    },
    {
      "duration": 0.18206388854789285,
      "note": 75,
      "time": 3.35667300876874,
      "velocity": 102
    },
    {
      "duration": 0.19737187796588382,
      "note": 75,
      "time": 3.5814732505493874,
      "velocity": 91
    },
    {
      "duration": 0.21798223410354514,
      "note": 60,
      "time": 3.796007900512304,
      "velocity": 91
    }
  ],
  "notes": [
    {
      "duration": 0.22,
      "note": 60,
      "time": 0.0,
      "velocity": 92
    },
    {
      "duration": 0.18,
      "note": 62,
      "time": 0.25,
      "velocity": 92
    },
    {
      "duration": 0.2,
      "note": 64,
      "time": 0.5,
      "velocity": 92
    },
    {
      "duration": 0.2,
      "note": 65,
      "time": 0.75,
      "velocity": 92
    },
    {
      "duration": 0.2,
      "note": 67,
      "time": 1.0,
      "velocity": 92
    },
    {
      "duration": 0.22,
      "note": 69,
      "time": 1.25,
      "velocity": 92
    },
    {
      "duration": 0.18,
      "note": 71,
      "time": 1.5,
      "velocity": 92
    },
    {
      "duration": 0.25,
      "note": 72,
      "time": 1.75,
      "velocity": 92
    }
  ],
  "params": {
    "max_tokens": 256,
    "seed": 1234,
    "strategy": "deterministic",
    "top_p": 0.95
  },
  "session_id": "fixture-1"
}